<?xml version="1.0"?><svg version="1.2" baseProfile="tiny-ps" viewBox="0 0 300 300" xmlns="http://www.w3.org/2000/svg" xmlns:xlink="http://www.w3.org/1999/xlink"><title>bimi-logo</title><g><g fill="#fefefe" transform="matrix(.1 0 0 -.1 0 300)"><path d="M0 1500V0h3000v3000H0V1500z"/></g><g fill="#dadada" transform="matrix(.1 0 0 -.1 0 300)"><path d="M225 2548c-3-7-4-247-3-533l3-520h1060v1060l-528 3-528 2-4-12zm943-525 2-403H350v810l408-2 407-3 3-402zm-538-868c-111-32-207-99-270-190l-29-43-26-75-25-76V638l16-62c9-33 30-87 47-119l30-58 56-51 56-51 61-27c73-33 147-50 217-50h53l57 15c31 8 83 28 115 44l57 29 57 59 57 58 30 65 30 65 13 72 12 73-11 65-11 65-32 68-31 67-47 48c-60 62-115 100-183 127l-54 22-95 4-95 4-55-15zm266-140 51-23 42-38c53-47 89-108 108-181l15-58-6-48c-4-27-16-73-27-104l-21-55-57-57-56-58-58-21-58-22H691l-58 22-57 21-54 51-54 51-26 50-27 50v210l29 53 30 53 42 39c52 48 113 80 173 90l46 8 55-5 55-5 51-23zm761-282c-4-3-7-30-7-59v-54l23-5c12-3 233-4 492-3l470 3 3 63 3 62h-978l-6-7z"/></g><g fill="#aeaeae" transform="matrix(.1 0 0 -.1 0 300)"><path d="m227 2543-7-6V1525l10-15 9-15 423-3c233-2 469-1 526 3l102 7-2 521-3 522-526 3-525 2-7-7zm943-517v-404l-122-6c-68-3-253-4-413-3l-290 2-3 408-2 407h830v-404zm-530-872c-30-8-79-27-108-41l-53-27-68-71-67-71-28-74-27-74-6-61-5-60 11-60 11-59 30-64 29-63 57-59 56-59 72-35c153-73 284-73 436 2l55 27 58 57 58 57 34 73 33 73 12 62 11 62-7 53c-9 71-40 152-82 216l-35 53-53 43c-63 52-118 80-199 101l-59 15-56-1c-30 0-80-7-110-15zm261-136 55-28 47-45 46-46 28-57 28-57-1-90v-90l-25-55-26-55-48-48c-26-26-65-57-87-68l-40-20-60-10-59-10-62 12-62 11-49 26-48 26-40 46-41 45-25 55-25 54v171l20 47 21 47 44 47c47 51 100 88 157 110l36 14 80-3 80-2 56-27zm809-287-55-6 1-17c0-10 1-34 2-53l2-35h981l-3 58-3 57-435 1c-239 0-460-2-490-5z"/></g><g fill="#717171" transform="matrix(.1 0 0 -.1 0 300)"><path d="M228 2408c-1-79-1-315 0-526l4-382 526 2 527 3v1040l-527 3-526 2-4-142zm685 24 257-2v-820l-413 2-412 3-3 410-2 410h157c87 0 274-2 416-3zM650 1154c-30-8-79-27-110-42l-55-27-61-60-61-60-31-65-32-65-11-60-11-60 7-59 6-59 24-64c44-117 116-198 225-253l60-30 67-16 68-16 57 7c117 13 221 62 302 142l47 48 42 83 41 83 4 88 4 88-17 59c-22 79-57 138-119 202l-51 53-60 34-60 34-65 15c-80 19-138 19-210 0zm263-139 59-29 48-53 49-53 21-56c11-31 23-76 26-98l6-42-15-61-16-61-31-51c-37-59-90-107-157-141l-48-25H665l-57 28-57 28-52 57-52 57-21 45-20 45-1 95v95l19 40c42 88 119 160 211 198l40 17 90-3 90-3 58-29zm1175-282-428-3V620h971l-3 58-3 57h-55c-30 0-247-1-482-2z"/></g><g fill="#333334" transform="matrix(.1 0 0 -.1 0 300)"><path d="m232 2028 3-523h1050l3 503 2 503-10 19-11 20H230l2-522zm940 400c3-11 3-765-1-805l-1-13H340l-1 58c-1 61-1 765 0 770 1 1 187 2 415 2h414l4-12zM612 1141c-82-30-142-69-196-125l-49-51-34-70-33-71-6-79-6-80 11-60 11-60 26-52 25-53 50-54c27-30 71-68 97-84l47-31 75-20 75-21h50c27 0 79 7 115 16l65 15 66 39 66 39 32 36c45 52 74 101 101 170l23 60 1 85v85l-18 55c-30 88-51 124-113 186l-58 59-79 40-79 40-106 3-106 2-53-19zm222-96 70-15 37-24c20-14 54-42 74-63l38-38 31-65 31-65v-81l-1-81-33-68-33-67-42-41-41-40-64-30-64-30H695l-50 18c-66 23-125 65-170 119l-36 44-20 58-21 59v130l23 60 22 59 51 54 51 54 49 25c84 42 141 49 240 28zm833-322c-9-8-9-66-1-87l6-16h958v110h-957l-6-7z"/></g><g fill="#060707" transform="matrix(.1 0 0 -.1 0 300)"><path d="M232 2168c-1-205 1-437 4-515l6-143h1009l15 14c17 18 18 33 2 39l-13 5 12 9 12 9-2 474-2 475-521 3-521 2-1-372zm954 254 12-17-6-10c-4-5-9-185-12-400l-5-390H335l-3 414-2 415 9 5c5 3 195 5 422 3l412-3 13-17zM630 1139l-65-19-12-17c-7-9-13-13-13-9s-19-3-41-16l-42-23-44-50c-25-27-58-74-73-105l-28-56-12-65-12-64 7-60c9-79 36-154 79-219 47-71 95-112 178-151l69-33 70-13 69-12 69 12 68 12 69 35 69 36 39 36c52 50 99 124 126 202l22 65v150l-21 59c-11 32-30 74-42 95-23 38-118 141-130 141-4 0-29 13-56 30l-48 29-60 16-59 15-56-1-55-1-65-19zm273-107 47-21 53-50 54-51 29-57 29-58V595l-25-49c-14-27-46-73-72-101l-46-51-59-29-58-30-90 1-90 1-43 16c-54 21-129 79-170 132l-30 40-22 65-22 65 5 65 6 65 18 50 18 50 61 62 60 61 40 18c64 29 85 33 174 30l85-2 48-22zm835-310-68-3v-89h948l7 40 7 39-8 12-7 12-121-7c-67-4-128-7-136-6-29 3-556 5-622 2z"/></g></g></svg>